<?xml version="1.0" encoding="UTF-8" standalone="no"?>
<svg
   width="128"
   height="128"
   viewBox="0 0 33.866665 33.866667"
   version="1.1"
   id="svg8"
   xmlns="http://www.w3.org/2000/svg"
   xmlns:svg="http://www.w3.org/2000/svg"
   xmlns:rdf="http://www.w3.org/1999/02/22-rdf-syntax-ns#"
   xmlns:cc="http://creativecommons.org/ns#"
   xmlns:dc="http://purl.org/dc/elements/1.1/">
  <defs
     id="defs2" />
  <metadata
     id="metadata5">
    <rdf:RDF>
      <cc:Work
         rdf:about="">
        <dc:format>image/svg+xml</dc:format>
        <dc:type
           rdf:resource="http://purl.org/dc/dcmitype/StillImage" />
        <cc:license
           rdf:resource="http://creativecommons.org/publicdomain/zero/1.0/" />
      </cc:Work>
      <cc:License
         rdf:about="http://creativecommons.org/publicdomain/zero/1.0/">
        <cc:permits
           rdf:resource="http://creativecommons.org/ns#Reproduction" />
        <cc:permits
           rdf:resource="http://creativecommons.org/ns#Distribution" />
        <cc:permits
           rdf:resource="http://creativecommons.org/ns#DerivativeWorks" />
      </cc:License>
    </rdf:RDF>
  </metadata>
  <rect
     transform="rotate(14.999999)"
     ry="2.6458333"
     rx="2.6458333"
     y="-2.3367383"
     x="6.4285994"
     height="28.620827"
     width="28.620827"
     id="rect1608-1-0-6"
     style="display:inline;fill:#fbce2f;fill-opacity:1;stroke:none;stroke-width:0.529164;stroke-linecap:round;stroke-linejoin:round" />
  <path
     id="path27420"
     style="fill:#1a1a1a;fill-opacity:1;stroke:none;stroke-width:0.264583"
     d="M 10.980208,8.9958334 V 24.870833 h 11.90625 V 12.964584 L 18.917709,8.9958334 Z m 7.937501,0.9921875 2.976562,2.9765631 h -2.976562 z m -2.183976,5.3707961 c 0.297974,0 0.575507,0.03349 0.831829,0.100769 0.256321,0.06408 0.478544,0.166667 0.667595,0.307636 0.192241,0.140979 0.341442,0.321996 0.447163,0.543088 0.108928,0.217873 0.163265,0.480639 0.163265,0.788227 0,0.195445 -0.02249,0.3732 -0.06734,0.533397 -0.04485,0.156997 -0.110181,0.306195 -0.196694,0.447163 -0.08651,0.140976 -0.194011,0.277039 -0.32217,0.408405 -0.12816,0.128159 -0.275702,0.261418 -0.442318,0.399201 -0.112133,0.09292 -0.211434,0.17909 -0.297947,0.25919 -0.08331,0.0801 -0.153561,0.160195 -0.211227,0.240295 -0.05445,0.0769 -0.09616,0.160284 -0.124992,0.249984 -0.02883,0.08651 -0.04312,0.185809 -0.04312,0.297947 0,0.0769 0.0093,0.155352 0.02858,0.235452 0.02243,0.08012 0.05147,0.147543 0.08672,0.202021 h -1.263973 c -0.03204,-0.08331 -0.05772,-0.176032 -0.07702,-0.278567 -0.01614,-0.105718 -0.02423,-0.205498 -0.02423,-0.298432 0,-0.147377 0.01478,-0.281797 0.0436,-0.403561 0.02883,-0.121744 0.07215,-0.235343 0.129838,-0.341064 0.05768,-0.108932 0.129559,-0.211517 0.216072,-0.307636 0.0865,-0.09933 0.187445,-0.196985 0.302792,-0.293102 0.121755,-0.102527 0.227626,-0.197404 0.317325,-0.283898 0.09292,-0.08972 0.171373,-0.177522 0.235451,-0.264034 0.06408,-0.08971 0.111843,-0.181302 0.143887,-0.274209 0.03201,-0.09611 0.04845,-0.201494 0.04845,-0.31684 0,-0.09933 -0.01804,-0.190902 -0.05329,-0.274209 -0.03525,-0.08649 -0.08629,-0.160045 -0.153576,-0.220916 -0.06409,-0.06087 -0.144177,-0.109121 -0.240295,-0.144371 -0.09293,-0.0352 -0.197135,-0.05281 -0.312481,-0.05281 -0.249915,0 -0.509399,0.05318 -0.778537,0.158905 -0.269139,0.102535 -0.523701,0.259436 -0.764005,0.470902 v -1.446617 c 0.246712,-0.147403 0.515556,-0.258182 0.807122,-0.33186 0.291565,-0.07368 0.592737,-0.110459 0.90353,-0.110459 z m -0.04312,5.53164 c 0.253119,0 0.463193,0.07565 0.629807,0.226245 0.166609,0.14738 0.2495,0.334497 0.2495,0.561981 0,0.230689 -0.08125,0.421561 -0.244656,0.572155 -0.166609,0.150572 -0.378328,0.225762 -0.634651,0.225762 -0.256323,0 -0.469211,-0.0768 -0.639011,-0.230607 -0.169812,-0.160199 -0.254829,-0.349427 -0.254829,-0.56731 0,-0.224283 0.085,-0.411385 0.254829,-0.561981 0.169811,-0.150599 0.382688,-0.226245 0.639011,-0.226245 z" />
</svg>
